<svg width="79" height="24" viewBox="0 0 79 24" fill="none" xmlns="http://www.w3.org/2000/svg">
<mask id="mask0_4965_64001" style="mask-type:luminance" maskUnits="userSpaceOnUse" x="0" y="4" width="13" height="20">
<path d="M0 4.97388H12.4669V23.0793H0V4.97388Z" fill="white"/>
</mask>
<g mask="url(#mask0_4965_64001)">
<path d="M8.98275 13.6277C8.70898 14.2253 8.32071 14.6859 7.81661 15.011C7.31383 15.3348 6.72812 15.498 6.06214 15.498C5.39615 15.498 4.81176 15.3309 4.30766 14.9979C3.80356 14.6649 3.41529 14.2042 3.14284 13.6146C2.86907 13.0249 2.73219 12.3379 2.73219 11.5521C2.73219 10.7677 2.86907 10.0753 3.14284 9.47779C3.41529 8.88025 3.80356 8.41827 4.30766 8.09449C4.81176 7.7707 5.39615 7.6075 6.06214 7.6075C6.72812 7.6075 7.31383 7.7707 7.81661 8.09449C8.32071 8.41827 8.70898 8.88025 8.98275 9.47779C9.2552 10.0753 9.39208 10.7677 9.39208 11.5521C9.39208 12.3379 9.2552 13.0302 8.98275 13.6277ZM11.5822 8.19715C11.1294 7.20738 10.4937 6.42556 9.67374 5.85302C8.85508 5.2818 7.8811 4.99487 6.75445 4.99487C6.07003 4.99487 5.42642 5.11859 4.81966 5.36604C4.21421 5.6148 3.69301 6.01097 3.25735 6.55718C3.16258 6.67696 3.07308 6.80726 2.98885 6.94414V5.22521H0.170898V23.0792H2.98885V16.0877C3.06519 16.2127 3.14547 16.3312 3.23234 16.4457C3.64957 16.9919 4.16288 17.4012 4.76833 17.675C5.37509 17.9474 6.03581 18.0843 6.75445 18.0843C7.77844 18.0843 8.70503 17.8237 9.53291 17.3025C10.3608 16.7826 11.0228 16.0311 11.5177 15.0492C12.0139 14.0673 12.2614 12.9012 12.2614 11.5521C12.2614 10.3057 12.035 9.18692 11.5822 8.19715Z" fill="black"/>
</g>
<path d="M15.833 10.3741C15.8843 9.84501 16.033 9.35407 16.2805 8.90131C16.5279 8.44854 16.878 8.07737 17.3308 7.78781C17.7836 7.49694 18.3429 7.35216 19.0089 7.35216C19.4867 7.35216 19.9145 7.43244 20.2896 7.59434C20.6647 7.75754 20.9819 7.97076 21.2372 8.23532C21.4939 8.49987 21.686 8.80259 21.8137 9.1448C21.9427 9.48701 22.0059 9.84501 22.0059 10.2201C22.0059 10.2715 22.0019 10.3228 22.0019 10.3741H15.833ZM24.375 8.88814C24.1447 8.13792 23.7906 7.46667 23.3129 6.87833C22.8338 6.28868 22.2323 5.82802 21.507 5.49502C20.7805 5.16203 19.9316 4.99487 18.9576 4.99487C17.9336 4.99487 17.0452 5.17914 16.2936 5.54635C15.5421 5.91357 14.9274 6.4124 14.4497 7.04417C13.9706 7.67594 13.6165 8.38931 13.3862 9.18297C13.1559 9.97794 13.04 10.7927 13.04 11.6298C13.04 12.4668 13.1598 13.2737 13.3994 14.0502C13.6376 14.8268 14.0048 15.523 14.501 16.1377C14.9959 16.7523 15.6316 17.2301 16.4095 17.5723C17.186 17.9132 18.1034 18.0843 19.1629 18.0843C19.8802 18.0843 20.5239 18.0159 21.0964 17.8803C21.6689 17.7434 22.2191 17.5302 22.7495 17.2393C23.2786 16.9485 23.8077 16.5641 24.3368 16.0864L22.7745 14.191C22.2968 14.6688 21.7663 15.0189 21.1872 15.2414C20.6055 15.4638 19.9658 15.5744 19.2656 15.5744C18.3087 15.5744 17.523 15.3098 16.9083 14.7807C16.2936 14.2503 15.9514 13.4829 15.8843 12.4747H24.6448C24.679 12.2536 24.7001 12.0312 24.708 11.8088C24.7172 11.5863 24.7212 11.4165 24.7212 11.2968C24.7212 10.4426 24.6053 9.63968 24.375 8.88814Z" fill="black"/>
<path d="M33.3918 14.2424C33.0838 14.7202 32.6785 15.0966 32.1744 15.369C31.6703 15.6428 31.1122 15.7797 30.4962 15.7797C29.796 15.7797 29.2366 15.6217 28.8194 15.3045C28.3995 14.99 28.1916 14.5583 28.1916 14.012C28.1916 13.7383 28.2469 13.4987 28.3574 13.2947C28.468 13.0894 28.6101 12.9183 28.7799 12.7827C29.0195 12.6287 29.2932 12.5221 29.5999 12.4616C29.9079 12.4024 30.2146 12.3721 30.5226 12.3721H33.8525V12.6287C33.8525 13.2263 33.6985 13.7646 33.3918 14.2424ZM35.249 6.28868C34.3013 5.42658 32.972 4.99487 31.2649 4.99487C30.1724 4.99487 29.1642 5.16203 28.2429 5.49502C27.3203 5.8267 26.449 6.37818 25.6303 7.14683L27.2176 9.01713C27.7638 8.47091 28.3666 8.06553 29.0234 7.79966C29.6815 7.53511 30.3514 7.40349 31.0345 7.40349C31.923 7.40349 32.614 7.61145 33.1102 8.02999C33.6051 8.44854 33.8525 9.06714 33.8525 9.88713V10.2464H30.1119C29.5144 10.2464 28.9431 10.3017 28.3956 10.4123C27.8494 10.5242 27.3716 10.7071 26.9623 10.9638C26.4832 11.2546 26.0949 11.6548 25.7961 12.1668C25.4974 12.6801 25.3486 13.2855 25.3486 13.9857C25.3486 14.8057 25.5487 15.523 25.9501 16.1377C26.3516 16.7523 26.9149 17.2314 27.6401 17.5723C28.3666 17.9132 29.1985 18.0843 30.1382 18.0843C30.8727 18.0843 31.5465 17.9343 32.1612 17.6355C32.7759 17.338 33.3063 16.8853 33.7498 16.2785C33.7972 16.214 33.842 16.1469 33.8867 16.0798L34.0578 17.854H36.6704V9.88713C36.6704 8.35114 36.1966 7.15078 35.249 6.28868Z" fill="black"/>
<path d="M45.3227 9.9385L49.8819 5.22525H46.244L41.3517 10.3373V0H38.5088V17.854H41.3517V13.9331L43.247 11.8338L47.064 17.854H50.4453" fill="black"/>
<path d="M53.6475 17.8541L58.0277 11.5009L53.6475 5.22534H57.0537L59.923 9.6056L62.8423 5.22534H66.1986L61.792 11.5009L66.1986 17.8541H62.791L59.923 13.3975L57.0024 17.8541" fill="black"/>
<mask id="mask1_4965_64001" style="mask-type:luminance" maskUnits="userSpaceOnUse" x="66" y="4" width="13" height="15">
<path d="M66.041 4.97388H79.0002V18.1147H66.041V4.97388Z" fill="white"/>
</mask>
<g mask="url(#mask1_4965_64001)">
<path d="M71.4966 17.8541L66.3477 5.22534H69.4723L72.6746 14.1662L75.9282 5.22534H79.0014L73.8525 17.8541" fill="black"/>
</g>
</svg>
